<svg xmlns="http://www.w3.org/2000/svg" viewBox="0 0 100 100">
  <style type="text/css">

	.st0{fill:#33E4B3;}
	.st1{fill:#8151A8;}
	.st2{fill:#5F3B82;}
	.st3{fill:#3BC3A3;}

  </style>
  <rect class="st0" width="100" height="100"/>
  <path class="st1" d="M42 24.2h14c7.4 0 13.3 6 13.3 13.3v27.6c0 7.4-6 13.3-13.3 13.3H42c-7.4 0-13.3-6-13.3-13.3V37.5C28.7 30.1 34.6 24.2 42 24.2z"/>
  <path class="st2" d="M59.1 76.9h-14c-7.4 0-13.6-6.2-13.6-13.5V35.8c0-4.5 2.4-8.5 5.8-10.9 -5.2 2-8.6 7-8.6 12.6v27.6c0 7.3 5.8 13.3 13.1 13.3 0 0 0.1 0 0.1 0h14c2.8 0 5.5-0.8 7.7-2.3C62.3 76.6 60.7 76.9 59.1 76.9z"/>
  <path class="st1" d="M20.2 99.9c0-9.1 7.3-16.4 16.4-16.4h28.8c9.1 0 16.4 7.3 16.4 16.4"/>
  <path class="st2" d="M36.6 83.6h-4.1c-9 0-16.4 7.3-16.4 16.3 0 0 0 0.1 0 0.1h4.1c0-9 7.2-16.4 16.3-16.4C36.5 83.6 36.5 83.6 36.6 83.6z"/>
  <path class="st2" d="M40.2 38.8h19.5c2.6 0 4.8 2.1 4.8 4.8v3c0 2.6-2.1 4.8-4.8 4.8H40.2c-2.6 0-4.8-2.1-4.8-4.8v-3C35.5 40.9 37.6 38.8 40.2 38.8z"/>
  <circle class="st3" cx="42" cy="45" r="1.2"/>
  <circle class="st3" cx="59.4" cy="45" r="1.2"/>
  <rect x="45.5" y="78.4" class="st2" width="7.6" height="5.1"/>
  <path class="st2" d="M57.3 57.9c0.5 0 0.9 0.4 0.9 0.9 0 0.1 0 0.2 0 0.2 -0.7 2.5-3.8 4.7-7.4 4.7S44 61.5 43.3 59c-0.1-0.5 0.1-0.9 0.6-1.1 0.1 0 0.2 0 0.2 0L57.3 57.9z"/>
  <path class="st2" d="M49.3 17.7c0.4-0.4 0.6-1 0.6-1.6 0-1.3-1-2.3-2.3-2.3 -1.3 0-2.3 1-2.3 2.3s1 2.3 2.3 2.3c0.3 0 0.5-0.1 0.8-0.1 1.4 2 1 5.8 1 5.9l1 0.1C50.5 24 50.8 20 49.3 17.7z"/>
</svg>