<svg xmlns="http://www.w3.org/2000/svg" viewBox="0 0 86.6 101">
  <path d="M85.6 48L47.8 2.2C46.7 0.8 45 0 43.2 0c-1.7 0-3.3 0.8-4.4 2.1L1 48.1c-1.1 1.4-1.3 3.3-0.5 5 0.8 1.6 2.3 2.6 3.9 2.6h8v35.6c0 4.3 5.4 9.8 9.6 9.8h43.3c4.4 0 10.4-5.7 10.4-9.8V55.6h6.4c1.7 0 3.2-1 3.9-2.6C86.9 51.3 86.7 49.4 85.6 48zM85.2 52.6c-0.6 1.3-1.7 2-3 2h-6.9 -0.5H37.9c-0.3 0-0.5 0.2-0.5 0.5s0.2 0.5 0.5 0.5h36.9v35.6c0 3.6-5.6 8.8-9.4 8.8H22.1c-3.7 0-8.6-5-8.6-8.8V54.6h-9c-1.3 0-2.4-0.8-3-2 -0.6-1.3-0.5-2.8 0.4-3.9l37.7-46C40.4 1.6 41.8 1 43.2 1c1.5 0 2.9 0.7 3.9 1.8l37.7 45.8 0 0C85.7 49.7 85.9 51.2 85.2 52.6z"/>
</svg>