<svg xmlns="http://www.w3.org/2000/svg" viewBox="0 0 1686 400">
  <rect x="45.2" y="110.2" fill="#FFFFFF" width="262.3" height="234.7"/>
  <path d="M816.5 197.2c12.1-6.6 22-17.6 22-36.4 0-26.4-19.8-44.1-55.1-44.1h-79.3v170.8h81.5c38.6 0 63.9-16.5 62.8-48.5C848.5 216 836.4 205 816.5 197.2zM740.5 151H778c15.4 0 24.2 5.5 24.2 16.5 0 12.1-9.9 17.6-26.4 17.6h-35.3V151zM785.7 252.3h-45.2V216h44.1c18.7 0 26.4 7.7 26.4 18.7C811 247.9 802.2 253.4 785.7 252.3z"/>
  <rect x="886" y="116.8" width="36.4" height="170.8"/>
  <polygon points="956.5 151 1009.4 151 1009.4 287.6 1045.7 287.6 1045.7 151 1097.5 151 1097.5 116.8 956.5 116.8 "/>
  <path d="M1273.8 173c0-35.3-24.2-56.2-63.9-56.2h-77.1v170.8h36.4v-55.1h29.8l36.4 55.1v-1.1h44.1l-41.9-60.6C1259.5 218.2 1273.8 200.6 1273.8 173zM1206.6 200.6h-37.5V151h37.5c17.6 0 28.7 7.7 28.7 24.2C1235.3 189.5 1225.3 199.4 1206.6 200.6z"/>
  <rect x="1312.4" y="116.8" width="38.6" height="170.8"/>
  <path d="M1466.7 184c-29.8-7.7-36.4-11-36.4-22 0-7.7 7.7-14.3 22-14.3s28.6 6.6 44.1 16.5l19.8-28.6c-16.5-14.3-38.6-22-62.8-22 -34.2 0-59.5 20.9-59.5 51.8 0 33.1 23.1 43 57.3 51.8 28.7 7.7 35.3 12.1 35.3 22 0 9.9-8.8 16.5-24.2 16.5 -18.7 0-35.3-8.8-50.7-20.9l-22 26.4c19.8 18.7 46.3 27.5 71.6 27.5 37.5 0 62.8-18.7 58.4-54C1519.6 205 1500.8 192.8 1466.7 184z"/>
  <polygon points="1594.5 253.4 1594.5 219.3 1673.8 219.3 1673.8 185.1 1594.5 185.1 1594.5 151 1683.7 151 1683.7 116.8 1555.9 116.8 1555.9 287.6 1555.9 287.6 1686 287.6 1686 253.4 "/>
  <path d="M512.4 0C503.6 0 497 7.7 497 15.4v369.1c0 8.8 7.7 15.4 15.4 15.4s14.3-6.6 15.4-15.4V15.4C527.8 6.6 520.1 0 512.4 0z"/>
  <path d="M87.1 217.1c4.4 0 7.7-3.3 7.7-7.7 0-5.5 4.4-9.9 9.9-9.9s9.9 4.4 9.9 9.9c0 4.4 3.3 7.7 7.7 7.7 4.4 0 7.7-3.3 5.5-7.7 0-13.2-11-24.2-24.2-24.2s-24.2 11-24.2 24.2C79.3 213.8 82.6 217.1 87.1 217.1z"/>
  <path d="M228.1 217.1c4.4 0 7.7-3.3 7.7-7.7 0-5.5 4.4-9.9 9.9-9.9s9.9 4.4 9.9 9.9c0 4.4 3.3 7.7 7.7 7.7 4.4 0 7.7-3.3 5.5-7.7 0-13.2-11-24.2-24.2-24.2s-24.2 11-24.2 24.2C220.4 213.8 223.7 217.1 228.1 217.1z"/>
  <path d="M317.4 159.8v-48.5c0-5.5-4.4-11-11-11H185.1V66.1h8.8c5.5 0 11-4.4 11-11V16.5c0-5.5-4.4-11-11-11h-38.6c-5.5 0-11 4.4-11 11v38.6c0 5.5 4.4 11 11 11h8.8v34.2h-119c-5.5 0-11 4.4-11 11v48.5c-19.8 4.4-34.2 22-34.2 43 0 20.9 14.3 38.6 34.2 43V346c0 5.5 4.4 11 11 11h262.3c5.5 0 11-4.4 11-11V243.5c18.7-4.4 32-22 32-41.9S336.1 164.2 317.4 159.8zM34.2 222.6c-7.7-4.4-13.2-12.1-13.2-20.9 0-8.8 5.5-17.6 13.2-20.9V222.6zM166.4 26.4h16.5V43h-16.5V26.4zM296.4 120.1v46.3 1.1 1.1 65 1.1 1.1 32H55.1V120.1H296.4zM55.1 333.9L55.1 333.9v-45.2h241.3v45.2H55.1zM318.5 221.5v-40.8c6.6 4.4 12.1 11 12.1 19.8C329.5 209.4 325.1 217.1 318.5 221.5z"/>
</svg>