<?xml version="1.0" encoding="utf-8"?>
<!-- Generator: Adobe Illustrator 19.1.0, SVG Export Plug-In . SVG Version: 6.00 Build 0)  -->
<svg version="1.1" id="Layer_1" xmlns="http://www.w3.org/2000/svg" xmlns:xlink="http://www.w3.org/1999/xlink" x="0px" y="0px"
	 viewBox="-563 383.6 153 37" style="enable-background:new -563 383.6 153 37;" xml:space="preserve">
<style type="text/css">
	.st0{fill:#FFFFFF;}
</style>
<g id="Layer_2">
</g>
<g>
	<g>
		<path d="M-491.7,410h-7.4v-15.5h7.2c3.2,0,5,1.6,5,4v0c0,1.7-0.9,2.7-2,3.3c1.8,0.7,2.9,1.7,2.9,3.8v0
			C-485.9,408.5-488.2,410-491.7,410z M-490.2,399.1c0-1-0.8-1.5-2.2-1.5h-3.4v3.1h3.2C-491.1,400.7-490.2,400.2-490.2,399.1
			L-490.2,399.1z M-489.4,405.2c0-1-0.7-1.7-2.4-1.7h-4v3.3h4.1C-490.2,406.9-489.4,406.4-489.4,405.2L-489.4,405.2z"/>
		<path d="M-482.6,410v-15.5h3.3V410H-482.6z"/>
		<path d="M-468.1,397.6V410h-3.3v-12.4h-4.8v-3.1h12.8v3.1H-468.1z"/>
		<path d="M-450.9,410l-3.3-5h-2.7v5h-3.3v-15.5h7c3.6,0,5.8,1.9,5.8,5.1v0c0,2.5-1.3,4.1-3.3,4.8l3.8,5.5H-450.9z M-450.9,399.8
			c0-1.5-1-2.2-2.6-2.2h-3.4v4.5h3.4C-451.8,402-450.9,401.1-450.9,399.8L-450.9,399.8z"/>
		<path d="M-443.9,410v-15.5h3.5V410H-443.9z"/>
		<path d="M-430.4,410.1c-2.3,0-4.7-0.8-6.5-2.5l2-2.4c1.4,1.1,2.9,1.9,4.6,1.9c1.4,0,2.2-0.6,2.2-1.5v0c0-0.9-0.6-1.3-3.2-2
			c-3.1-0.8-5.2-1.7-5.2-4.7v0c0-2.8,2.3-4.7,5.4-4.7c2.2,0,4.2,0.7,5.7,2l-1.8,2.6c-1.4-0.9-2.7-1.5-4-1.5c-1.3,0-2,0.6-2,1.3v0
			c0,1,0.6,1.3,3.3,2c3.1,0.8,4.8,1.9,4.8,4.6v0C-424.7,408.4-427,410.1-430.4,410.1z"/>
		<path d="M-421.8,410v-15.5h11.6v3.1h-8.1v3.1h7.2v3.1h-7.2v3.1h8.3v3.1H-421.8z"/>
	</g>
	<g>
		<path d="M-516.5,420.2c-0.7,0-1.4-0.6-1.4-1.4v-33.5c0-0.7,0.6-1.4,1.4-1.4c0.7,0,1.4,0.6,1.4,1.4v33.5
			C-515.2,419.6-515.8,420.2-516.5,420.2z"/>
	</g>
	<g>
		<rect x="-558.9" y="393.9" class="st0" width="23.8" height="21.3"/>
		<g>
			<g>
				<path d="M-551.9,403.6c-0.4,0-0.7-0.3-0.7-0.7c0-0.5-0.4-0.9-0.9-0.9c-0.5,0-0.9,0.4-0.9,0.9c0,0.4-0.3,0.7-0.7,0.7
					s-0.7-0.3-0.7-0.7c0-1.2,1-2.2,2.2-2.2c1.2,0,2.2,1,2.2,2.2C-551.2,403.3-551.5,403.6-551.9,403.6z"/>
			</g>
			<g>
				<path d="M-539.1,403.6c-0.4,0-0.7-0.3-0.7-0.7c0-0.5-0.4-0.9-0.9-0.9s-0.9,0.4-0.9,0.9c0,0.4-0.3,0.7-0.7,0.7
					c-0.4,0-0.7-0.3-0.7-0.7c0-1.2,1-2.2,2.2-2.2s2.2,1,2.2,2.2C-538.4,403.3-538.7,403.6-539.1,403.6z"/>
			</g>
		</g>
		<path d="M-531.2,402.2c0-1.8-1.3-3.4-3-3.8v-4.4c0-0.5-0.4-1-1-1h-11v-3.1h0.8c0.5,0,1-0.4,1-1v-3.5c0-0.5-0.4-1-1-1h-3.5
			c-0.5,0-1,0.4-1,1v3.5c0,0.5,0.4,1,1,1h0.8v3.1h-10.8c-0.5,0-1,0.4-1,1v4.4c-1.8,0.4-3.1,2-3.1,3.9c0,1.9,1.3,3.5,3.1,3.9v9.1
			c0,0.5,0.4,1,1,1h23.8c0.5,0,1-0.4,1-1V406C-532.4,405.6-531.2,404-531.2,402.2z M-547.9,386.3h1.5v1.5h-1.5V386.3z M-561.1,402.2
			c0-0.8,0.5-1.6,1.2-1.9v3.8C-560.6,403.7-561.1,403-561.1,402.2z M-558,414.2v-19.4h21.9v4.2c0,0,0,0.1,0,0.1s0,0.1,0,0.1v5.9
			c0,0,0,0.1,0,0.1c0,0,0,0.1,0,0.1v8.9H-558z M-534.1,404v-3.7c0.6,0.4,1.1,1,1.1,1.8C-533.1,402.9-533.5,403.6-534.1,404z"/>
		<g>
			<rect x="-559.3" y="408.2" width="24" height="1.9"/>
		</g>
	</g>
</g>
</svg>
