<svg xmlns="http://www.w3.org/2000/svg" viewBox="0 0 109.6 100.5">
  <circle cx="49.1" cy="49.1" r="49.1" fill="#D6FBF0"/>
  <path d="M13.9 55l21.4 12.4L56.5 55v-1.7H13.9s.1 1.8 0 1.7z" fill="#5F3B82" stroke="#5F3B82" stroke-linecap="round" stroke-linejoin="round" stroke-miterlimit="10" />
  <path d="M56.5 53.3L35 41 13.9 53.3l21.4 12.4z" fill="#FFFFFF" stroke="#5F3B82" stroke-linecap="round" stroke-linejoin="round" stroke-miterlimit="10" />
  <path d="M49.3 49.1L28.2 61.3m13.5-16.4L20.6 57.1" fill="#FFFFFF" stroke="#5F3B82" stroke-linejoin="round" stroke-miterlimit="10" />
  <path d="M66.6 33.5l21.5-12.3 21 12.3-21.4 12.4z" fill="#FFFFFF" stroke="#5F3B82" stroke-linecap="round" stroke-linejoin="round" stroke-miterlimit="10" />
  <path d="M109.1 54.8l-21 12.1V45.6l21-12.1z" fill="#5F3B82" stroke="#5F3B82" stroke-linejoin="round" stroke-miterlimit="10" />
  <path d="M66.6 54.9V33.7l21.1 12.2v21.3zm7.1-25.6l21.1 12.2M81.4 25.1l21.1 12.2" fill="#FFFFFF" stroke="#5F3B82" stroke-linejoin="round" stroke-miterlimit="10" />
  <path d="M72.7 37.2v21.3m7.7-16.7v20.9" fill="none" stroke="#5F3B82" stroke-linecap="round" stroke-linejoin="round" stroke-miterlimit="10" />
  <path d="M41.9 55l21.5-12.2L84.5 55 63 67.4z" fill="#FFFFFF" stroke="#5F3B82" stroke-linecap="round" stroke-linejoin="round" stroke-miterlimit="10" />
  <path d="M63.5 64.6L42.4 76.7 41.9 55l21.5-12.2zm21 11.8L63.4 88.5V67.1L84.5 55z" fill="#5F3B82" stroke="#5F3B82" stroke-linejoin="round" stroke-miterlimit="10" />
  <path d="M41.9 76.4V55.2L63 67.4v21.4z" fill="#FFFFFF" stroke="#5F3B82" stroke-linejoin="round" stroke-miterlimit="10" />
  <path d="M48.1 58.7v21.4m7.7-16.8v20.9" fill="none" stroke="#5F3B82" stroke-linecap="round" stroke-linejoin="round" stroke-miterlimit="10" />
  <path d="M63.5 64.6l21 11.8" fill="#FFFFFF" stroke="#5F3B82" stroke-miterlimit="10" />
  <path d="M3.1 66.3L24.6 54l21.1 12.2-21.4 12.4z" fill="#FFFFFF" stroke="#5F3B82" stroke-linecap="round" stroke-linejoin="round" stroke-miterlimit="10" />
  <path d="M45.7 87.6l-21 12.1V78.4l21-12.2z" fill="#5F3B82" stroke="#5F3B82" stroke-linejoin="round" stroke-miterlimit="10" />
  <path d="M3.1 87.7l.1-21.2 21.1 12.1V100zm7.2-25.6l21.1 12.2M17.9 57.9L39 70.1" fill="#FFFFFF" stroke="#5F3B82" stroke-linejoin="round" stroke-miterlimit="10" />
  <path d="M9.3 70v21.3M17 74.5v21" fill="none" stroke="#5F3B82" stroke-linecap="round" stroke-linejoin="round" stroke-miterlimit="10" />
  <path d="M50.4 28.3c-6.7.7-15-2.7-18.4-7.5s-.7-9.2 6-9.8c6.7-.7 15 2.7 18.4 7.5 3.4 4.8.7 9.2-6 9.8z" fill="#FFFFFF" stroke="#5F3B82" stroke-linejoin="round" stroke-miterlimit="10" />
  <path d="M55.4 18.1l5-10.9M56 20.9l2.4-5.4" fill="none" stroke="#5F3B82" stroke-linecap="round" stroke-miterlimit="10" />
  <path d="M49.9 25.1c-5.4.5-12.1-2.3-14.9-6.1s-.6-7.4 4.8-7.9 12.1 2.3 14.8 6.2.7 7.4-4.7 7.8z" fill="#FFFFFF" stroke="#5F3B82" stroke-linejoin="round" stroke-miterlimit="10" />
  <path d="M38.6 12c1.8-4 6.2-5 10.2-3.1 4 1.8 6.2 5.7 4.3 9.7l.2-.4c-.5 1.2-1.9 2.1-4.1 2.3-3.8.4-8.5-1.5-10.4-4.2-.8-1.1-1-2.1-.8-3l.6-1.3z" fill="#FFFFFF" stroke="#5F3B82" stroke-miterlimit="10" />
  <path d="M39.9 15.3l1.1-2.4c.7-1.5 1.8-2.5 3.3-3 1.3-.4 2.8-.3 4.2.3-.2-.1-.4-.2-.5-.2-1.6-.7-3.3-.9-4.8-.5s-2.7 1.4-3.3 3l-.5 1.1c-.2.4 0 1.1.5 1.7-.1 0-.1 0 0 0zm-1.7-.1l-7.6.5s.1 3.5.9 4.4l7.3-3.7-.6-1.2z" fill="#5F3B82"/>
  <path d="M32.5 21.3l6.7-4.3" fill="none" stroke="#5F3B82" stroke-miterlimit="10" />
  <ellipse cx="50.9" cy="16.4" transform="rotate(-65.537 50.932 16.357)" fill="#5F3B82" rx=".6" ry=".6"/>
  <ellipse cx="43.7" cy="16.2" transform="rotate(-65.537 43.702 16.24)" fill="#5F3B82" rx=".6" ry=".6"/>
  <path d="M53.5 27.6s.3 3.1-2.6 7.6m-13.8-9.9s.3 3.1-2.6 7.6" fill="none" stroke="#5F3B82" stroke-linecap="round" stroke-miterlimit="10" />
  <path d="M45.9 18.8s2.3-.9 3.2.4" fill="none" stroke="#5F3B82" stroke-miterlimit="10" />
</svg>
