<svg xmlns="http://www.w3.org/2000/svg" viewBox="0 0 580.1 400">
  <path d="M575.6 189.6L382.1 4c-5.8-5.6-15-5.4-20.5 0.4 -5.6 5.8-5.4 15 0.4 20.6l167.4 160.6H172.2c-8 0-14.5 6.5-14.5 14.5 0 8 6.5 14.5 14.5 14.5h357.1L362 374.9c-5.8 5.6-6 14.8-0.5 20.6 2.9 3 6.7 4.5 10.5 4.5 3.6 0 7.2-1.3 10.1-4l193.5-185.3c2.9-2.7 4.5-6.5 4.5-10.5C580.1 196.2 578.5 192.4 575.6 189.6z"/>
  <path d="M48.9 185.6H14.5c-8 0-14.5 6.5-14.5 14.5 0 8 6.5 14.5 14.5 14.5h34.3c8 0 14.5-6.5 14.5-14.5C63.4 192.1 56.9 185.6 48.9 185.6z"/>
</svg>