<svg xmlns="http://www.w3.org/2000/svg" viewBox="0 0 400 400">
	<path d="M272.3 0H127.7C57.2 0 0 57.2 0 127.7v144.5C0 342.8 57.2 400 127.7 400h144.5c70.6 0 127.7-57.2 127.7-127.7V127.7C400 57.2 342.8 0 272.3 0zM261.2 122.3c-1.2 0-2.1 0-3 0 -7.3 0-14.5-0.2-21.8 0.1 -10 0.4-17.3 4.2-17.7 16.6 -0.2 9.1-0.4 30-0.4 30s23.4 0 33.6 0c2.6 0 5.2 0 8.1 0 -1.9 14.5-3.7 28.4-5.5 42.4h-35.8v105.9h-43.9V211.1h-35.9V169H175v-3.2c0-8.5-0.2-17 0-25.4 0.1-5.4 0.4-10.9 1.3-16.2 2.3-12.9 8.2-23.8 19-31.5 9.4-6.7 20.2-9.5 31.6-9.8 7.5-0.2 14.9 0.2 22.4 0.5 4.1 0.2 8.1 0.8 12 1.1V122.3z"/>
</svg>