<svg xmlns="http://www.w3.org/2000/svg" viewBox="0 0 400 400">
	<path d="M316 391.3l-0.4 0.1c-76.6 11.5-154.5 11.5-231.1 0l-0.4-0.1c-38.9-5.8-69.5-36.4-75.4-75.3l0 0C-2.9 239.4-2.9 161.5 8.6 84.8l0.1-0.8c5.8-39 36.4-69.5 75.4-75.4l0.4-0.1C161-2.9 239-2.9 315.6 8.6l0.4 0.1c39 5.8 69.5 36.4 75.4 75.4l0.1 0.8c11.5 76.6 11.5 154.5-0.1 231.1l0 0C385.5 354.9 354.9 385.5 316 391.3z"/>
	<path d="M233.1 129.9c6.6-0.2 13.2-0.1 19.8-0.1 0.8 0 1.6 0 2.7 0V95.5c-3.5-0.4-7.2-0.9-10.9-1 -6.8-0.3-13.5-0.6-20.3-0.5 -10.3 0.2-20.1 2.7-28.7 8.9 -9.8 7.1-15.2 17-17.2 28.7 -0.9 4.8-1.1 9.8-1.2 14.7 -0.2 7.7 0 15.4 0 23.1v2.9h-32.8v38.3H177v96.4H217v-96.2h32.5c1.7-12.8 3.3-25.4 5-38.5 -2.6 0-5 0-7.3 0 -9.3 0-30.5 0-30.5 0s0.1-19 0.3-27.2C217.3 133.6 224 130.2 233.1 129.9z" fill="white"/>
</svg>