<svg xmlns="http://www.w3.org/2000/svg" viewBox="0 0 410 400">
	<path d="M205 0L205 0C91.8 0 0 91.8 0 205c0 90.6 58.7 167.5 140.2 194.6 10.3 1.8 14-4.5 14-9.9 0-4.9-0.2-17.8-0.3-34.8 -57 12.4-69.1-27.5-69.1-27.5 -9.3-23.7-22.8-30-22.8-30 -18.6-12.7 1.4-12.5 1.4-12.5 20.6 1.5 31.4 21.1 31.4 21.1 18.3 31.4 48 22.3 59.7 17.1 1.9-13.2 7.2-22.3 13-27.3 -45.5-5.2-93.4-22.8-93.4-101.4 0-22.4 8-40.7 21.1-55 -2.1-5.2-9.1-26.1 2-54.3 0 0 17.2-5.5 56.4 21 16.3-4.5 33.9-6.8 51.3-6.9 17.4 0.1 34.9 2.4 51.4 6.9 39.1-26.5 56.3-21 56.3-21 11.1 28.2 4.1 49.1 2 54.3 13.2 14.3 21.1 32.6 21.1 55 0 78.8-48 96.1-93.6 101.2 7.4 6.3 13.9 18.8 13.9 38.1 0 27.4-0.3 49.5-0.3 56.2 0 5.5 3.7 11.8 14 9.9 81.4-27.2 140.1-104 140.1-194.5C410.1 91.8 318.3 0 205 0z"/>
</svg>