<svg xmlns="http://www.w3.org/2000/svg" viewBox="0 0 400 400">
  <path d="M316 391.3l-0.4 0.1c-76.6 11.5-154.5 11.5-231.1 0l-0.4-0.1c-38.9-5.8-69.5-36.4-75.4-75.3l0 0C-2.9 239.4-2.9 161.5 8.6 84.8l0.1-0.8c5.8-39 36.4-69.5 75.4-75.4l0.4-0.1C161-2.9 239-2.9 315.6 8.6l0.4 0.1c39 5.8 69.5 36.4 75.4 75.4l0.1 0.8c11.5 76.6 11.5 154.5-0.1 231.1l0 0C385.5 354.9 354.9 385.5 316 391.3z"/>
  <path d="M112.6 158.6h41v131.9h-41V158.6zM133.2 93.1c13.1 0 23.8 10.7 23.8 23.8 0 13.1-10.7 23.8-23.8 23.8 -13.2 0-23.8-10.7-23.8-23.8C109.4 103.7 120 93.1 133.2 93.1" fill="white"/>
  <path d="M179.4 158.6h39.3v18h0.5c5.5-10.4 18.9-21.3 38.8-21.3 41.5 0 49.2 27.3 49.2 62.8v72.3h-41v-64.1c0-15.3-0.3-35-21.3-35 -21.3 0-24.6 16.6-24.6 33.8v65.2h-41V158.6z" fill="white"/>
</svg>