<svg xmlns="http://www.w3.org/2000/svg" viewBox="0 0 400 400">
	<rect x="171.8" y="172.9" transform="matrix(0.9482 -0.3176 0.3176 0.9482 -53.1792 73.8821)" width="56.4" height="54.3"/>
	<path d="M383.3 145C342 7.6 282.5-24.5 145 16.7 7.6 58-24.5 117.5 16.7 255 58 392.4 117.5 424.5 255 383.3 392.4 342 424.5 282.5 383.3 145zM313.8 234.2l-25.9 8.7 9 26.8c3.6 10.9-2.2 22.6-13.1 26.2 -2.4 0.8-4.8 1.1-7.1 1.1 -8.5-0.2-16.3-5.7-19.1-14.1l-9-26.8L195.1 274l9 26.8c3.6 10.9-2.2 22.6-13.1 26.2 -2.4 0.8-4.8 1.1-7.1 1.1 -8.5-0.2-16.3-5.7-19.1-14.1l-9-26.8 -25.9 8.7c-2.4 0.8-4.8 1.1-7.1 1.1 -8.5-0.2-16.3-5.7-19.1-14.1 -3.6-10.9 2.2-22.6 13.1-26.2l25.9-8.7 -17.2-51.4 -25.9 8.7c-2.4 0.8-4.8 1.1-7.1 1.1 -8.5-0.2-16.3-5.7-19.1-14.1 -3.6-10.9 2.2-22.6 13.1-26.2l25.9-8.7 -9-26.8c-3.6-10.9 2.2-22.6 13.1-26.2 10.9-3.6 22.6 2.2 26.2 13.1l9 26.8L205 126l-9-26.8c-3.6-10.9 2.2-22.6 13.1-26.2 10.9-3.6 22.6 2.2 26.2 13.1l9 26.8 25.9-8.7c10.9-3.6 22.6 2.2 26.2 13.1 3.6 10.9-2.2 22.6-13.1 26.2l-25.9 8.7 17.2 51.4 25.9-8.7c10.9-3.6 22.6 2.2 26.2 13.1C330.5 218.8 324.6 230.6 313.8 234.2z"/>
</svg>