<svg xmlns="http://www.w3.org/2000/svg" viewBox="0 0 491.1 400">
	<path d="M491.1 47.5c-17.5 10.1-55.3 15.2-55.3 15.2 32.3-20.8 41-55.3 41-55.3 -26.7 18-65 24-65 24 -12.9-17-80.2-55.3-134.6-10.1 -54.4 45.1-36.6 104.1-36.6 104.1C109.6 118.5 34.2 18.6 34.2 18.6c-45.3 80.5 29.4 134.5 29.4 134.5 -21.4-0.7-44.9-12.5-44.9-12.5 0.7 80.9 78.1 99.6 78.1 99.6 -6.2 6.9-42.2 4.1-42.2 4.1 20.7 67.1 92.6 68.5 92.6 68.5C86.4 364.6 0 354.9 0 354.9c63.6 53.9 239.9 75.4 347.1-27.7 107.2-103 93.8-227.7 93.8-227.7C472.6 77 491.1 47.5 491.1 47.5z"/>
</svg>