<svg xmlns="http://www.w3.org/2000/svg" viewBox="0 0 400 400">
  <path d="M316 391.3l-0.4 0.1c-76.6 11.5-154.5 11.5-231.1 0l-0.4-0.1c-38.9-5.8-69.5-36.4-75.4-75.3l0 0C-2.9 239.4-2.9 161.5 8.6 84.8l0.1-0.8c5.8-39 36.4-69.5 75.4-75.4l0.4-0.1C161-2.9 239-2.9 315.6 8.6l0.4 0.1c39 5.8 69.5 36.4 75.4 75.4l0.1 0.8c11.5 76.6 11.5 154.5-0.1 231.1l0 0C385.5 354.9 354.9 385.5 316 391.3z"/>
  <path d="M163.3 245.9c-23.2-0.8-37.8-17.5-41.6-31 6.5 1.2 12.8 1 19.2-0.6 0.2 0 0.3-0.1 0.6-0.3 -12.6-2.9-22.3-9.7-29.1-20.5 -4.5-7.2-6.6-15.1-6.6-23.8 6.3 3.4 12.9 5.2 19.9 5.4 -9.5-6.8-15.8-15.7-18.4-27.1 -2.6-11.4-0.9-22.2 4.8-32.4 24.2 28.5 54.9 44.2 92.3 46.7 -0.3-1.8-0.5-3.3-0.7-4.9 -1.2-10.5 0.9-20.3 6.5-29.2 7.1-11.2 17.3-18.1 30.3-20.2 15-2.5 28.2 1.8 39.2 12.5 0.7 0.7 1.4 0.9 2.4 0.7 9.2-2 17.9-5.3 26-10 0.2-0.1 0.4-0.2 0.6-0.3 0 0 0.1 0 0.3 0 -3.5 10.4-10 18.4-19.2 24.3 8.7-0.9 16.9-3.2 24.9-6.7 0.1 0.1 0.1 0.1 0.2 0.2 -1.7 2.2-3.4 4.5-5.1 6.7 -4.7 5.9-10.2 11-16.3 15.5 -0.5 0.4-0.8 0.7-0.7 1.4 0.2 6.6 0 13.3-0.8 19.9 -1.7 13.9-5.6 27.2-11.5 39.8 -6.1 13.1-14.1 24.9-24.2 35.3 -17 17.6-37.6 29-61.5 34.2 -8.2 1.8-16.5 2.7-24.9 3 -25.8 0.8-49.6-5.7-71.6-19.2 -0.3-0.2-0.6-0.4-1.1-0.7 15.6 1.7 30.5-0.3 44.7-6.2C149.6 255.2 156.6 251.2 163.3 245.9z" fill="white"/>
</svg>