<svg xmlns="http://www.w3.org/2000/svg" viewBox="0 0 400 400">
  <path d="M316 391.3l-0.4 0.1c-76.6 11.5-154.5 11.5-231.1 0l-0.4-0.1c-38.9-5.8-69.5-36.4-75.4-75.3l0 0C-2.9 239.4-2.9 161.5 8.6 84.8l0.1-0.8c5.8-39 36.4-69.5 75.4-75.4l0.4-0.1C161-2.9 239-2.9 315.6 8.6l0.4 0.1c39 5.8 69.5 36.4 75.4 75.4l0.1 0.8c11.5 76.6 11.5 154.5-0.1 231.1l0 0C385.5 354.9 354.9 385.5 316 391.3z"/>
  <path d="M188 301.7V217l-63.1-114.9h29.3l28.1 55.1c7.7 15.1 13.6 27.2 19.8 41.1h0.6c5.6-13 12.4-26.1 20.1-41.1l28.7-55.1h29.3L214 216.7v85H188z" fill="white"/>
</svg>